<svg width="81" height="22" viewBox="0 0 81 22" fill="none" xmlns="http://www.w3.org/2000/svg">
<path d="M71.1455 6.06886H73.146V0.348816H76.2728V6.06886H81V9.19563H76.2728V17.0644C76.2728 17.4003 76.4012 17.6917 76.6581 17.9387C76.9248 18.1758 77.241 18.2944 77.6065 18.2944H81V21.4211H77.562C76.7519 21.4211 76.011 21.2285 75.3392 20.8432C74.6773 20.448 74.1438 19.9244 73.7388 19.2724C73.3436 18.6105 73.146 17.8794 73.146 17.0792V9.19563H71.1455V6.06886Z" fill="black"/>
<path d="M65.781 1.92644C65.781 1.39296 65.9687 0.938522 66.3441 0.563113C66.7195 0.187704 67.174 0 67.7074 0C68.2409 0 68.6954 0.187704 69.0708 0.563113C69.4462 0.938522 69.6339 1.39296 69.6339 1.92644C69.6339 2.45992 69.4462 2.91436 69.0708 3.28977C68.6954 3.66518 68.2409 3.85288 67.7074 3.85288C67.174 3.85288 66.7195 3.66518 66.3441 3.28977C65.9687 2.91436 65.781 2.45992 65.781 1.92644ZM66.1367 6.10534H69.2782V21.4576H66.1367V6.10534Z" fill="black"/>
<path d="M50.1619 9.27472C50.1619 8.41523 50.4682 7.68418 51.0807 7.08154C51.703 6.46904 52.4489 6.16278 53.3183 6.16278H58.7271C59.7447 6.16278 60.6733 6.4147 61.5131 6.91854C62.3528 7.4125 63.0197 8.07934 63.5136 8.91907C64.0175 9.7588 64.2694 10.6874 64.2694 11.705V21.515H61.1426V11.7495C61.1426 11.0579 60.9055 10.4701 60.4313 9.98602C59.967 9.50194 59.3989 9.2599 58.7271 9.2599H53.2887V21.515H50.1619V9.27472Z" fill="black"/>
<path d="M34.5428 9.27472C34.5428 8.41523 34.849 7.68418 35.4615 7.08154C36.0839 6.46904 36.8298 6.16278 37.6992 6.16278H43.108C44.1256 6.16278 45.0542 6.4147 45.894 6.91854C46.7337 7.4125 47.4005 8.07934 47.8945 8.91907C48.3983 9.7588 48.6503 10.6874 48.6503 11.705V21.515H45.5235V11.7495C45.5235 11.0579 45.2864 10.4701 44.8122 9.98602C44.3479 9.50194 43.7798 9.2599 43.108 9.2599H37.6695V21.515H34.5428V9.27472Z" fill="black"/>
<path d="M18.9237 6.16278H22.0504V15.9284C22.0504 16.6199 22.2875 17.2077 22.7617 17.6918C23.2359 18.1759 23.804 18.4179 24.4659 18.4179H29.9044V6.16278H33.0312V18.4031C33.0312 19.2626 32.7249 19.9986 32.1124 20.6111C31.4999 21.2137 30.754 21.515 29.8748 21.515H24.4659C23.4483 21.515 22.5197 21.2681 21.68 20.7741C20.8402 20.2703 20.1685 19.5985 19.6646 18.7587C19.1707 17.919 18.9237 16.9904 18.9237 15.9728V6.16278Z" fill="black"/>
<path d="M0 0.348816H11.1437C12.102 0.348816 12.9714 0.585916 13.7518 1.06012C14.5422 1.52444 15.1695 2.14683 15.6338 2.92728C16.108 3.70774 16.3451 4.57711 16.3451 5.53539V7.63965C16.3451 8.59793 16.1129 9.46236 15.6486 10.2329C15.1942 11.0035 14.5718 11.616 13.7815 12.0705C12.9911 12.5249 12.1069 12.7521 11.1289 12.7521L17.4121 21.4211H13.6036L7.32048 12.7521H4.90501V9.64019H11.1437C11.7266 9.64019 12.2206 9.4426 12.6256 9.04744C13.0306 8.64239 13.2332 8.15831 13.2332 7.5952V5.53539C13.2332 4.96239 13.0306 4.47338 12.6256 4.06833C12.2206 3.66328 11.7266 3.46076 11.1437 3.46076H3.12676V21.4211H0V0.348816Z" fill="black"/>
</svg>
